<svg id="Camada_1" data-name="Camada 1" xmlns="http://www.w3.org/2000/svg" viewBox="0 0 1013.15 959.92"><defs><style>.cls-1{fill:#e8d0d0;}.cls-1,.cls-10,.cls-11,.cls-12,.cls-2,.cls-3,.cls-4,.cls-5,.cls-6,.cls-7,.cls-8,.cls-9{stroke:#000;stroke-linecap:round;stroke-linejoin:round;}.cls-1,.cls-12,.cls-3,.cls-8{stroke-width:13.69px;}.cls-11,.cls-12,.cls-2{fill:none;}.cls-2,.cls-9{stroke-width:15.22px;}.cls-3{fill:#ae8b8a;}.cls-10,.cls-4,.cls-5,.cls-6,.cls-9{fill:#69a55a;}.cls-11,.cls-4{stroke-width:13.15px;}.cls-5{stroke-width:9.28px;}.cls-6{stroke-width:11.39px;}.cls-7{stroke-width:10.27px;}.cls-8{fill:#f8e9e9;}.cls-10{stroke-width:12.55px;}</style></defs><circle class="cls-1" cx="279.12" cy="250.35" r="106.11"/><line class="cls-1" x1="279.12" y1="36.27" x2="279.12" y2="111.37"/><line class="cls-1" x1="279.12" y1="394.21" x2="279.12" y2="469.31"/><line class="cls-1" x1="430.5" y1="98.97" x2="377.4" y2="152.07"/><line class="cls-1" x1="177.39" y1="352.08" x2="124.29" y2="405.18"/><line class="cls-1" x1="493.2" y1="250.35" x2="418.11" y2="250.35"/><line class="cls-1" x1="135.26" y1="250.35" x2="60.16" y2="250.35"/><line class="cls-1" x1="430.5" y1="401.73" x2="377.4" y2="348.63"/><line class="cls-1" x1="177.39" y1="148.63" x2="124.29" y2="95.53"/><line class="cls-1" x1="362.09" y1="53" x2="332.99" y2="122.23"/><line class="cls-1" x1="223.36" y1="382.97" x2="194.26" y2="452.2"/><line class="cls-1" x1="477.34" y1="169.47" x2="407.81" y2="197.84"/><line class="cls-1" x1="145.92" y1="304.7" x2="76.39" y2="333.07"/><line class="cls-1" x1="476.47" y1="333.32" x2="407.24" y2="304.22"/><line class="cls-1" x1="106.53" y1="177.79" x2="77.28" y2="165.49"/><line class="cls-1" x1="146.5" y1="194.6" x2="140.07" y2="191.89"/><line class="cls-1" x1="360" y1="448.57" x2="331.63" y2="379.04"/><line class="cls-1" x1="204.36" y1="67.14" x2="196.4" y2="47.62"/><line class="cls-1" x1="224.77" y1="117.15" x2="212.41" y2="86.87"/><path class="cls-2" d="M305.46,362.57c45.19,0,45.19,34.22,90.37,34.22s45.19-34.22,90.38-34.22,45.19,34.22,90.38,34.22,45.19-34.22,90.38-34.22,45.19,34.22,90.38,34.22"/><path class="cls-3" d="M847.92,477.23h33.3a41.51,41.51,0,0,0,41.51-41.51V333.52h-39.8v87.2a16.71,16.71,0,0,1-16.71,16.71h-27.8V395h-45.5V757.64a10.08,10.08,0,0,1-10.08,10.08H710v49.64H780c.67,0,1.33,0,2-.1l-.1.1c31.22,0,56.52-17,56.52-48.25V698.56l78-68.14L894.34,608l-55.92,46.54V486.73A9.5,9.5,0,0,1,847.92,477.23Z"/><path class="cls-3" d="M124.32,692.4a41.52,41.52,0,0,0,41.51,41.51h33.31a9.49,9.49,0,0,1,9.49,9.49v45.34c0,31.21,25.31,48.26,56.52,48.26l-.1-.1c.66.05,1.31.1,2,.1H337.1V787.36H264.21a10.09,10.09,0,0,1-10.08-10.08V627.94l-45.5.26v65.91h-27.8a16.71,16.71,0,0,1-16.71-16.71l-1.71-49.46-38.76-.87Z"/><path class="cls-4" d="M446.88,446.32c-31.17-22.07-63.17-26.65-90.53-19.67a134.53,134.53,0,0,0-262.9,4.23,4.77,4.77,0,0,1-4,3.8,97.15,97.15,0,0,0,1.39,192.38h0l289.63.88V618c74.6,0,129.57-84.08,75.3-162.65A36.42,36.42,0,0,0,446.88,446.32Z"/><path class="cls-5" d="M124.81,441.68a96.21,96.21,0,0,0-64.65,2.75"/><path class="cls-4" d="M86.07,562.47a114.7,114.7,0,0,0,114.7,114.7h41.32v-61"/><path class="cls-6" d="M112,489.79a115.2,115.2,0,0,0-13,19.75"/><path class="cls-6" d="M200.77,447.77a114.18,114.18,0,0,0-66.34,21.12"/><path class="cls-4" d="M924.93,598.83c-13.76-12.74-33.54-19-56-13.22a84.42,84.42,0,0,0-165,2.65,3,3,0,0,1-2.52,2.38,61,61,0,0,0,.86,120.73l181.76.56c25.82.07,48-18.49,56.7-42.08C950.64,643.12,942.89,615.43,924.93,598.83Z"/><path class="cls-4" d="M889.36,610.48a72,72,0,0,0-67.11-32.85"/><path class="cls-4" d="M1006.29,251.8c-4.33-67-58.81-121.14-125.84-125.14l-1.23-.07a56.45,56.45,0,0,1-47-29.72A171,171,0,0,0,681.43,6.58c-50.16,0-97.93,29.24-129.22,63.64-8.49-2-25.15-5.7-34.24-5.7-63.57,0-104.6,46.51-104.6,110.08a114.89,114.89,0,0,0,5.73,35.85,123.55,123.55,0,0,0,91.2,183.18v1.13H864c2.72.16,5.46.27,8.23.27A134.32,134.32,0,0,0,1006.29,251.8Z"/><rect class="cls-7" x="242.09" y="291.45" width="551.74" height="663.34" rx="72.06"/><rect class="cls-8" x="242.09" y="262.25" width="551.74" height="663.34" rx="72.06"/><rect class="cls-1" x="304.59" y="526.24" width="93.87" height="72.47" rx="21.74"/><path class="cls-1" d="M490.22,598.71A19.25,19.25,0,0,1,471,579.52v-34.1a19.24,19.24,0,0,1,19.19-19.18H718a19.24,19.24,0,0,1,19.18,19.18v34.1A19.24,19.24,0,0,1,718,598.71H549.64"/><rect class="cls-1" x="304.59" y="655.45" width="93.87" height="72.47" rx="21.74"/><rect class="cls-1" x="471.03" y="655.45" width="93.87" height="72.47" rx="21.74"/><rect class="cls-1" x="304.59" y="784.67" width="93.87" height="72.47" rx="21.74"/><rect class="cls-1" x="471.03" y="784.67" width="93.87" height="72.47" rx="21.74"/><path class="cls-1" d="M643.35,691.73a36.38,36.38,0,0,1,36.27-36.28H701a36.38,36.38,0,0,1,36.27,36.28V820.87A36.37,36.37,0,0,1,701,857.14H679.62a36.37,36.37,0,0,1-36.27-36.27"/><path class="cls-1" d="M398.46,327.63h311A35,35,0,0,1,744.3,362.5V453a35,35,0,0,1-34.87,34.87H331.74A35,35,0,0,1,296.87,453V362.5a35,35,0,0,1,34.87-34.87"/><path class="cls-9" d="M576.82,83.8A157.26,157.26,0,0,0,339.24,262.25H442.76"/><path class="cls-10" d="M895.51,128.55a130.26,130.26,0,0,0-86.55,13"/><circle cx="612.16" cy="117.31" r="8.05"/><circle cx="596.06" cy="101.21" r="8.05"/><circle cx="905.01" cy="630.2" r="8.31"/><line class="cls-11" x1="838.42" y1="437.43" x2="816.34" y2="437.43"/><line class="cls-11" x1="208.63" y1="694.11" x2="224.99" y2="694.11"/><line class="cls-12" x1="643.35" y1="820.87" x2="643.35" y2="756.3"/><line class="cls-12" x1="643.35" y1="727.92" x2="643.35" y2="711.93"/><line class="cls-12" x1="373.72" y1="327.63" x2="357.13" y2="327.63"/><line class="cls-12" x1="509.86" y1="598.71" x2="531.31" y2="598.71"/></svg>