<svg id="Camada_1" data-name="Camada 1" xmlns="http://www.w3.org/2000/svg" viewBox="0 0 902.42 1030.73"><defs><style>.cls-1,.cls-2,.cls-3,.cls-4,.cls-5,.cls-6,.cls-7,.cls-8,.cls-9{stroke:#000;}.cls-1,.cls-2,.cls-3,.cls-4,.cls-6,.cls-7,.cls-8,.cls-9{stroke-linecap:round;stroke-linejoin:round;}.cls-1{stroke-width:10.64px;}.cls-2{fill:#f8e9e9;}.cls-2,.cls-3,.cls-4,.cls-6,.cls-9{stroke-width:14.19px;}.cls-3{fill:#e8d0d0;}.cls-4,.cls-8{fill:none;}.cls-5{fill:#f5a148;stroke-miterlimit:10;stroke-width:13.68px;}.cls-6{fill:#fff;}.cls-7{fill:#69a55a;}.cls-7,.cls-8{stroke-width:11.81px;}.cls-9{fill:#ae8b8a;}</style></defs><rect class="cls-1" x="112.51" y="219.1" width="571.95" height="687.63" rx="74.69"/><rect class="cls-2" x="112.51" y="188.82" width="571.95" height="687.63" rx="74.69"/><rect class="cls-3" x="177.3" y="462.48" width="97.31" height="75.12" rx="22.54"/><path class="cls-3" d="M369.72,537.6a20,20,0,0,1-19.89-19.89V482.37a20,20,0,0,1,19.89-19.89H605.88a20,20,0,0,1,19.89,19.89v35.34a20,20,0,0,1-19.89,19.89"/><rect class="cls-3" x="177.3" y="596.43" width="97.31" height="75.12" rx="22.54"/><rect class="cls-3" x="349.83" y="596.43" width="97.31" height="75.12" rx="22.54"/><rect class="cls-3" x="177.3" y="730.38" width="97.31" height="75.12" rx="22.54"/><rect class="cls-3" x="349.83" y="730.38" width="97.31" height="75.12" rx="22.54"/><path class="cls-3" d="M625.77,767.9a37.71,37.71,0,0,1-37.6,37.6H566.06a37.71,37.71,0,0,1-37.6-37.6V634a37.71,37.71,0,0,1,37.6-37.6h22.11a37.71,37.71,0,0,1,37.6,37.6"/><path class="cls-3" d="M597,256.6a36.25,36.25,0,0,1,36.14,36.15v93.84A36.24,36.24,0,0,1,597,422.73H205.44a36.24,36.24,0,0,1-36.14-36.14V292.75a36.25,36.25,0,0,1,36.14-36.15"/><line class="cls-4" x1="205.44" y1="256.6" x2="520.59" y2="256.6"/><line class="cls-4" x1="548.13" y1="256.6" x2="571.38" y2="256.6"/><path class="cls-5" d="M628.9,692.21c15.38-5.8,27-18.81,33.93-33.71,6.31-13.52,14.84-28.44,24.24-35.51,13.48-10.14,33.18-8,47.7.54,34,20.09,61.35,59.13,86.18,87.82,13.45,15.54,26.23,31.62,38.49,48.12,14.74,19.83,31.17,40,30.86,66-.52,44.36-27.11,73.15-69.29,80.58-13.54,2.39-18.23-3.27-33.56,6a29,29,0,0,0-7.38,6.73c-13.14,16.11-32.45,25.91-53.19,25.91H458.93s-8.09-59.6,45-64.83c0,0-4-84.85,70.48-88.75C574.4,791.08,567.46,715.37,628.9,692.21Z"/><path class="cls-5" d="M287.13,894.77c13.1-10.62-8-33.18.54-47.7s22.42-25,35.9-35.17c2.62-2,5.11-4.1,7.64-6.18C352.07,788.56,372.62,771,393,753.24c11.59-10.12,23.11-20.32,34.4-30.77,4.64-4.29,9.28-8.6,13.76-13.07,6.77-6.76,14.89-10.31,23.39-14.72,16.29-8.46,40.79-2.29,57.71,3.45,32.52,11,42.54,31.89,48,62.7,2.21,12.57-2.51,17.52,4.2,30.45,4.7,9,15,14.52,24.14,20.79A31.3,31.3,0,0,1,612,838.47c-.23,12-.48,30.77-.32,50.57a82.4,82.4,0,0,1-82.34,83.15H315.91c-35.82,0-57.94-41.11-36.3-69.66A44.31,44.31,0,0,1,287.13,894.77Z"/><circle class="cls-6" cx="816.35" cy="690.52" r="78.97"/><circle class="cls-6" cx="405.5" cy="944.66" r="78.97"/><circle class="cls-6" cx="718.61" cy="596.43" r="78.97"/><path class="cls-7" d="M804.34,865.6q4-.39,8-1.07"/><path class="cls-7" d="M528.46,800.69c2.69-.27,5.38-.62,8-1.07"/><path class="cls-7" d="M718.61,831.36a118.54,118.54,0,0,0,64.11,33.15"/><path class="cls-8" d="M508.5,800.15a48,48,0,0,1-48.05-48"/><line class="cls-3" x1="398.49" y1="256.6" x2="275.16" y2="256.6"/><line class="cls-3" x1="235.19" y1="256.6" x2="252.53" y2="256.6"/><line class="cls-3" x1="392.53" y1="537.6" x2="409.87" y2="537.6"/><line class="cls-4" x1="605.88" y1="537.6" x2="441.52" y2="537.6"/><line class="cls-4" x1="625.77" y1="692.21" x2="625.77" y2="634.03"/><path class="cls-9" d="M206.73,21C230,7.53,252.57,3.08,257.19,11.05L504.3,419.34H384.47L173,59.8C168.36,51.83,183.47,34.46,206.73,21Z"/><rect class="cls-3" x="207.59" y="80.37" width="177.25" height="177.25" rx="22.39" transform="translate(637.24 166.84) rotate(149.93)"/><path class="cls-3" d="M403.54,177.4s109.64-66.09,273.1-99.58a11.23,11.23,0,0,0,6.1-18.52C662.24,36.56,589.59-3.65,503.31,9.78,420.9,22.6,340.57,69.15,340.57,69.15Z"/><path class="cls-3" d="M252.34,270.31S140.73,333,30.9,458.64a11.24,11.24,0,0,1-19.12-3.85C2.14,425.74,3,342.71,57.31,274.31c51.84-65.34,132-112.21,132-112.21Z"/><line class="cls-4" x1="203.95" y1="58.44" x2="188.69" y2="33.51"/><line class="cls-4" x1="231.78" y1="103.9" x2="215.34" y2="77.04"/><line class="cls-4" x1="377.98" y1="342.76" x2="325.25" y2="256.6"/><line class="cls-4" x1="391.77" y1="365.29" x2="385.65" y2="355.29"/><line class="cls-4" x1="424.86" y1="419.34" x2="407.06" y2="390.26"/></svg>