<svg width="38" height="38" viewBox="0 0 38 38" fill="none" xmlns="http://www.w3.org/2000/svg">
<rect width="38" height="38" rx="19" fill="#121414"/>
<path d="M12.3108 9.45666C15.1195 11.5725 18.141 15.8619 19.25 18.1637V24.2436C19.25 24.1142 19.2002 24.2604 19.093 24.5755C18.5142 26.2813 16.2533 32.9388 11.0835 27.6165C8.36128 24.8143 9.6215 22.0121 14.5766 21.1661C11.7419 21.65 8.55498 20.8503 7.68064 17.7151C7.42875 16.8132 7 11.2578 7 10.5075C7 6.74903 10.2841 7.93039 12.3108 9.45666ZM26.1892 9.45666C23.3805 11.5725 20.359 15.8619 19.25 18.1637V24.2436C19.25 24.1142 19.2998 24.2604 19.407 24.5755C19.9858 26.2813 22.2467 32.9388 27.4165 27.6165C30.1387 24.8143 28.8785 22.0121 23.9234 21.1661C26.7581 21.65 29.945 20.8503 30.8194 17.7151C31.0712 16.8132 31.5 11.2578 31.5 10.5075C31.5 6.74903 28.2162 7.93039 26.1892 9.45666Z" fill="white"/>
</svg>
