<svg width="38" height="38" viewBox="0 0 38 38" fill="none" xmlns="http://www.w3.org/2000/svg">
<g clip-path="url(#clip0_43_23650)">
<path d="M19.0005 0C8.50661 0 0 8.50661 0 19.0005C0 29.4943 8.50661 38.001 19.0005 38.001C29.4943 38.001 38.001 29.4943 38.001 19.0005C38 8.50661 29.4934 0 19.0005 0ZM24.6295 17.5258L24.3129 20.0677C24.2594 20.4924 23.8998 20.8118 23.4733 20.8118H19.3562V31.4395C18.9221 31.4787 18.4821 31.4988 18.0374 31.4988C17.0429 31.4988 16.0722 31.3994 15.134 31.21V20.8118H11.9676C11.6769 20.8118 11.4397 20.5736 11.4397 20.282V17.1012C11.4397 16.8095 11.6769 16.5714 11.9676 16.5714H15.134V11.8012C15.134 8.87384 17.4971 6.50117 20.413 6.50117H24.1073C24.398 6.50117 24.6352 6.7393 24.6352 7.03098V10.2118C24.6352 10.5034 24.398 10.7416 24.1073 10.7416H21.4678C20.302 10.7416 19.3572 11.6902 19.3572 12.8618V16.5723H23.7908C24.2995 16.5723 24.6926 17.0199 24.6304 17.5268L24.6295 17.5258Z" fill="#121214"/>
</g>
<defs>
<clipPath id="clip0_43_23650">
<rect width="38" height="38" fill="white"/>
</clipPath>
</defs>
</svg>
