<svg width="39" height="38" viewBox="0 0 39 38" fill="none" xmlns="http://www.w3.org/2000/svg">
<g clip-path="url(#clip0_43_23639)">
<path d="M24.4384 10.7521H14.5626C12.6152 10.7521 11.035 12.2918 11.035 14.1891V23.8118C11.035 25.7092 12.6152 27.2489 14.5626 27.2489H24.4384C26.3857 27.2489 27.9659 25.7092 27.9659 23.8118V14.1891C27.9659 12.2918 26.3857 10.7521 24.4384 10.7521ZM19.5103 24.1551C16.5903 24.1551 14.22 21.8456 14.22 19.0005C14.22 16.1554 16.5903 13.8458 19.5103 13.8458C22.4303 13.8458 24.8006 16.1554 24.8006 19.0005C24.8006 21.8456 22.4303 24.1551 19.5103 24.1551ZM25.1539 14.5325C24.5709 14.5325 24.0959 14.0696 24.0959 13.5015C24.0959 12.9335 24.5709 12.4706 25.1539 12.4706C25.737 12.4706 26.212 12.9335 26.212 13.5015C26.212 14.0696 25.737 14.5325 25.1539 14.5325Z" fill="#121214"/>
<path d="M19.5103 15.5634C17.5669 15.5634 15.9828 17.1069 15.9828 19.0004C15.9828 20.894 17.5669 22.4375 19.5103 22.4375C21.4537 22.4375 23.0378 20.894 23.0378 19.0004C23.0378 17.1069 21.4537 15.5634 19.5103 15.5634Z" fill="#121214"/>
<path d="M19.5005 0C8.73046 0 0 8.50661 0 19.0005C0 29.4943 8.73046 38.001 19.5005 38.001C30.2705 38.001 39.001 29.4943 39.001 19.0005C39 8.50661 30.2695 0 19.5005 0ZM29.7287 24.1551C29.7287 26.8118 27.5174 28.9665 24.7908 28.9665H14.2092C11.4826 28.9665 9.27127 26.8118 9.27127 24.1551V13.8449C9.27127 11.1882 11.4826 9.03355 14.2092 9.03355H24.7908C27.5174 9.03355 29.7287 11.1882 29.7287 13.8449V24.1551Z" fill="#121214"/>
</g>
<defs>
<clipPath id="clip0_43_23639">
<rect width="39" height="38" fill="white"/>
</clipPath>
</defs>
</svg>
