<svg width="38" height="38" viewBox="0 0 38 38" fill="none" xmlns="http://www.w3.org/2000/svg">
<g clip-path="url(#clip0_43_23631)">
<path d="M19.0005 0C8.50661 0 0 8.50661 0 19.0005C0 29.4943 8.50661 38.001 19.0005 38.001C29.4943 38.001 38.001 29.4943 38.001 19.0005C38 8.50661 29.4934 0 19.0005 0ZM14.3097 27.6056C14.3097 27.706 14.2284 27.7882 14.127 27.7882H10.4126C10.3122 27.7882 10.2299 27.707 10.2299 27.6056V15.7346C10.2299 15.6342 10.3112 15.5519 10.4126 15.5519H14.127C14.2274 15.5519 14.3097 15.6332 14.3097 15.7346V27.6056ZM12.2707 13.9204C10.9194 13.9204 9.82348 12.8245 9.82348 11.4732C9.82348 10.1219 10.9194 9.0259 12.2707 9.0259C13.622 9.0259 14.718 10.1219 14.718 11.4732C14.718 12.8245 13.622 13.9204 12.2707 13.9204ZM28.1775 26.9725C28.1775 27.421 27.8102 27.7882 27.3617 27.7882H24.9145C24.4659 27.7882 24.0987 27.421 24.0987 26.9725V21.2622C24.0987 20.1366 23.1854 19.2233 22.0598 19.2233C20.9342 19.2233 20.0209 20.1366 20.0209 21.2622V26.9725C20.0209 27.421 19.6537 27.7882 19.2051 27.7882H16.7579C16.3093 27.7882 15.9421 27.421 15.9421 26.9725V16.3677C15.9421 15.9192 16.3093 15.5519 16.7579 15.5519H19.2051C19.6537 15.5519 20.0209 15.9192 20.0209 16.3677V16.8898C20.8366 15.8331 22.187 15.1445 23.6913 15.1445C25.9425 15.1445 28.1775 16.776 28.1775 20.0391V26.9725Z" fill="#121214"/>
</g>
<defs>
<clipPath id="clip0_43_23631">
<rect width="38" height="38" fill="white"/>
</clipPath>
</defs>
</svg>
