<svg width="38" height="38" viewBox="0 0 38 38" fill="none" xmlns="http://www.w3.org/2000/svg">
<g clip-path="url(#clip0_43_23645)">
<path d="M11.9867 11.1479L23.2303 26.8519H26.0133L14.7706 11.1479H11.9867Z" fill="#121214"/>
<path d="M19.0005 0C8.50661 0 0 8.50661 0 19.0005C0 29.4943 8.50661 38.001 19.0005 38.001C29.4943 38.001 38.001 29.4943 38.001 19.0005C38 8.50661 29.4934 0 19.0005 0ZM22.144 28.9665L17.2217 22.0904L10.7932 28.9665H7.87447L15.9555 20.3221L7.87447 9.03355H15.858L20.478 15.4869L26.5106 9.03355H29.4293L21.7432 17.2542L30.1274 28.9655H22.144V28.9665Z" fill="#121214"/>
</g>
<defs>
<clipPath id="clip0_43_23645">
<rect width="38" height="38" fill="white"/>
</clipPath>
</defs>
</svg>
