<svg width="38" height="38" viewBox="0 0 38 38" fill="none" xmlns="http://www.w3.org/2000/svg">
<g clip-path="url(#clip0_43_23634)">
<path d="M21.6304 18.2947L17.0763 16.0186C16.5503 15.7566 15.9326 16.1381 15.9326 16.7253V21.2775C15.9326 21.8647 16.5513 22.2463 17.0763 21.9833L21.6304 19.7072C22.2119 19.4155 22.2119 18.5854 21.6304 18.2947Z" fill="#121214"/>
<path d="M19.0005 0C8.5066 0 0 8.50661 0 19.0005C0 29.4943 8.5066 38.001 19.0005 38.001C29.4943 38.001 38.0009 29.4943 38.0009 19.0005C38 8.50661 29.4934 0 19.0005 0ZM30.1179 24.1217C30.1179 25.7398 28.8058 27.0509 27.1886 27.0509H10.8123C9.19421 27.0509 7.88212 25.7398 7.88212 24.1217V13.8793C7.88212 12.2621 9.19421 10.95 10.8123 10.95H27.1886C28.8058 10.95 30.1179 12.2621 30.1179 13.8793V24.1217Z" fill="#121214"/>
</g>
<defs>
<clipPath id="clip0_43_23634">
<rect width="38" height="38" fill="white"/>
</clipPath>
</defs>
</svg>
